<mxfile host="Electron" modified="2024-03-13T08:37:50.850Z" agent="Mozilla/5.0 (Windows NT 10.0; Win64; x64) AppleWebKit/537.36 (KHTML, like Gecko) draw.io/24.0.4 Chrome/120.0.6099.109 Electron/28.1.0 Safari/537.36" etag="wvA9T9ScuMhVdUCyVMU5" version="24.0.4" type="device">
  <diagram name="Страница — 1" id="f5qaqixOcX6vG_OhwR0j">
    <mxGraphModel dx="1444" dy="929" grid="1" gridSize="10" guides="1" tooltips="1" connect="1" arrows="1" fold="1" page="1" pageScale="1" pageWidth="649" pageHeight="1011" math="0" shadow="0">
      <root>
        <mxCell id="0" />
        <mxCell id="1" parent="0" />
        <mxCell id="IjKXMDxGVLM-X3WJk7MZ-6" style="edgeStyle=orthogonalEdgeStyle;rounded=0;orthogonalLoop=1;jettySize=auto;html=1;exitX=0.5;exitY=0.5;exitDx=0;exitDy=20;exitPerimeter=0;entryX=0.5;entryY=0;entryDx=0;entryDy=0;endArrow=none;endFill=0;fontFamily=Times New Roman;" parent="1" source="IjKXMDxGVLM-X3WJk7MZ-2" target="IjKXMDxGVLM-X3WJk7MZ-5" edge="1">
          <mxGeometry relative="1" as="geometry" />
        </mxCell>
        <mxCell id="IjKXMDxGVLM-X3WJk7MZ-2" value="radix_sort(массив, длина массива)" style="html=1;dashed=0;whiteSpace=wrap;shape=mxgraph.dfd.start;fontFamily=Times New Roman;" parent="1" vertex="1">
          <mxGeometry x="40" width="120" height="40" as="geometry" />
        </mxCell>
        <mxCell id="IjKXMDxGVLM-X3WJk7MZ-21" style="edgeStyle=orthogonalEdgeStyle;rounded=0;orthogonalLoop=1;jettySize=auto;html=1;exitX=0.5;exitY=1;exitDx=0;exitDy=0;entryX=0.5;entryY=0;entryDx=0;entryDy=0;endArrow=none;endFill=0;fontFamily=Times New Roman;" parent="1" source="IjKXMDxGVLM-X3WJk7MZ-3" target="IjKXMDxGVLM-X3WJk7MZ-8" edge="1">
          <mxGeometry relative="1" as="geometry" />
        </mxCell>
        <mxCell id="IjKXMDxGVLM-X3WJk7MZ-3" value="&lt;div&gt;i = max_value(a, q)&lt;/div&gt;" style="shape=process;whiteSpace=wrap;html=1;backgroundOutline=1;fontFamily=Times New Roman;" parent="1" vertex="1">
          <mxGeometry x="40" y="200" width="120" height="80" as="geometry" />
        </mxCell>
        <mxCell id="IjKXMDxGVLM-X3WJk7MZ-7" style="edgeStyle=orthogonalEdgeStyle;rounded=0;orthogonalLoop=1;jettySize=auto;html=1;exitX=0.5;exitY=1;exitDx=0;exitDy=0;entryX=0.5;entryY=0;entryDx=0;entryDy=0;endArrow=none;endFill=0;fontFamily=Times New Roman;" parent="1" source="IjKXMDxGVLM-X3WJk7MZ-5" target="IjKXMDxGVLM-X3WJk7MZ-3" edge="1">
          <mxGeometry relative="1" as="geometry" />
        </mxCell>
        <mxCell id="IjKXMDxGVLM-X3WJk7MZ-5" value="Записать время начала выполения алгоритма,&amp;nbsp;&lt;br&gt;&lt;span style=&quot;&quot;&gt;инициализая exp&lt;/span&gt;" style="rounded=0;whiteSpace=wrap;html=1;fontFamily=Times New Roman;" parent="1" vertex="1">
          <mxGeometry x="40" y="80" width="120" height="80" as="geometry" />
        </mxCell>
        <mxCell id="IjKXMDxGVLM-X3WJk7MZ-23" style="edgeStyle=orthogonalEdgeStyle;rounded=0;orthogonalLoop=1;jettySize=auto;html=1;exitX=0.5;exitY=1;exitDx=0;exitDy=0;entryX=0.5;entryY=0;entryDx=0;entryDy=0;endArrow=none;endFill=0;fontFamily=Times New Roman;" parent="1" source="IjKXMDxGVLM-X3WJk7MZ-8" target="IjKXMDxGVLM-X3WJk7MZ-10" edge="1">
          <mxGeometry relative="1" as="geometry" />
        </mxCell>
        <mxCell id="IjKXMDxGVLM-X3WJk7MZ-8" value="exp = 1,&lt;br&gt;пока i&amp;nbsp;/ exp &amp;gt; 0,&lt;div&gt;exp *= 10&lt;/div&gt;" style="shape=loopLimit;whiteSpace=wrap;html=1;fontFamily=Times New Roman;" parent="1" vertex="1">
          <mxGeometry x="40" y="320" width="120" height="80" as="geometry" />
        </mxCell>
        <mxCell id="IjKXMDxGVLM-X3WJk7MZ-25" style="edgeStyle=orthogonalEdgeStyle;rounded=0;orthogonalLoop=1;jettySize=auto;html=1;exitX=0.5;exitY=0;exitDx=0;exitDy=0;entryX=0.5;entryY=0;entryDx=0;entryDy=0;endArrow=none;endFill=0;fontFamily=Times New Roman;" parent="1" source="IjKXMDxGVLM-X3WJk7MZ-9" target="IjKXMDxGVLM-X3WJk7MZ-11" edge="1">
          <mxGeometry relative="1" as="geometry" />
        </mxCell>
        <mxCell id="IjKXMDxGVLM-X3WJk7MZ-9" value="exp" style="shape=loopLimit;whiteSpace=wrap;html=1;direction=west;fontFamily=Times New Roman;" parent="1" vertex="1">
          <mxGeometry x="40" y="520" width="120" height="80" as="geometry" />
        </mxCell>
        <mxCell id="IjKXMDxGVLM-X3WJk7MZ-64" style="edgeStyle=orthogonalEdgeStyle;rounded=0;orthogonalLoop=1;jettySize=auto;html=1;exitX=0.5;exitY=1;exitDx=0;exitDy=0;entryX=0.5;entryY=0;entryDx=0;entryDy=0;endArrow=none;endFill=0;fontFamily=Times New Roman;" parent="1" source="IjKXMDxGVLM-X3WJk7MZ-10" edge="1">
          <mxGeometry relative="1" as="geometry">
            <mxPoint x="100" y="520" as="targetPoint" />
          </mxGeometry>
        </mxCell>
        <mxCell id="IjKXMDxGVLM-X3WJk7MZ-10" value="A" style="ellipse;whiteSpace=wrap;html=1;aspect=fixed;fontFamily=Times New Roman;" parent="1" vertex="1">
          <mxGeometry x="80" y="440" width="40" height="40" as="geometry" />
        </mxCell>
        <mxCell id="IjKXMDxGVLM-X3WJk7MZ-11" value="Записать время конца выполения алгоритма" style="rounded=0;whiteSpace=wrap;html=1;fontFamily=Times New Roman;" parent="1" vertex="1">
          <mxGeometry x="40" y="640" width="120" height="80" as="geometry" />
        </mxCell>
        <mxCell id="IjKXMDxGVLM-X3WJk7MZ-12" value="Вернуть массив" style="html=1;dashed=0;whiteSpace=wrap;shape=mxgraph.dfd.start;fontFamily=Times New Roman;" parent="1" vertex="1">
          <mxGeometry x="40" y="760" width="120" height="40" as="geometry" />
        </mxCell>
        <mxCell id="IjKXMDxGVLM-X3WJk7MZ-47" style="edgeStyle=orthogonalEdgeStyle;rounded=0;orthogonalLoop=1;jettySize=auto;html=1;exitX=0.5;exitY=1;exitDx=0;exitDy=0;entryX=0.5;entryY=0;entryDx=0;entryDy=0;endArrow=none;endFill=0;fontFamily=Times New Roman;" parent="1" source="IjKXMDxGVLM-X3WJk7MZ-15" target="IjKXMDxGVLM-X3WJk7MZ-17" edge="1">
          <mxGeometry relative="1" as="geometry" />
        </mxCell>
        <mxCell id="IjKXMDxGVLM-X3WJk7MZ-15" value="A" style="ellipse;whiteSpace=wrap;html=1;aspect=fixed;fontFamily=Times New Roman;" parent="1" vertex="1">
          <mxGeometry x="320" width="40" height="40" as="geometry" />
        </mxCell>
        <mxCell id="IjKXMDxGVLM-X3WJk7MZ-55" style="edgeStyle=orthogonalEdgeStyle;rounded=0;orthogonalLoop=1;jettySize=auto;html=1;exitX=0.5;exitY=1;exitDx=0;exitDy=0;entryX=0.5;entryY=0;entryDx=0;entryDy=0;endArrow=none;endFill=0;fontFamily=Times New Roman;" parent="1" source="IjKXMDxGVLM-X3WJk7MZ-16" target="IjKXMDxGVLM-X3WJk7MZ-35" edge="1">
          <mxGeometry relative="1" as="geometry" />
        </mxCell>
        <mxCell id="IjKXMDxGVLM-X3WJk7MZ-16" value="B" style="ellipse;whiteSpace=wrap;html=1;aspect=fixed;fontFamily=Times New Roman;" parent="1" vertex="1">
          <mxGeometry x="560" width="40" height="40" as="geometry" />
        </mxCell>
        <mxCell id="IjKXMDxGVLM-X3WJk7MZ-48" style="edgeStyle=orthogonalEdgeStyle;rounded=0;orthogonalLoop=1;jettySize=auto;html=1;exitX=0.5;exitY=1;exitDx=0;exitDy=0;entryX=0.5;entryY=0;entryDx=0;entryDy=0;endArrow=none;endFill=0;fontFamily=Times New Roman;" parent="1" source="IjKXMDxGVLM-X3WJk7MZ-17" target="IjKXMDxGVLM-X3WJk7MZ-27" edge="1">
          <mxGeometry relative="1" as="geometry" />
        </mxCell>
        <mxCell id="IjKXMDxGVLM-X3WJk7MZ-17" value="Инициализация&amp;nbsp; массива count[10] нулями, объявление массива результата" style="rounded=0;whiteSpace=wrap;html=1;fontFamily=Times New Roman;" parent="1" vertex="1">
          <mxGeometry x="280" y="80" width="120" height="80" as="geometry" />
        </mxCell>
        <mxCell id="IjKXMDxGVLM-X3WJk7MZ-26" style="edgeStyle=orthogonalEdgeStyle;rounded=0;orthogonalLoop=1;jettySize=auto;html=1;exitX=0.5;exitY=1;exitDx=0;exitDy=0;entryX=0.5;entryY=0.5;entryDx=0;entryDy=-20;entryPerimeter=0;endArrow=none;endFill=0;fontFamily=Times New Roman;" parent="1" source="IjKXMDxGVLM-X3WJk7MZ-11" target="IjKXMDxGVLM-X3WJk7MZ-12" edge="1">
          <mxGeometry relative="1" as="geometry" />
        </mxCell>
        <mxCell id="IjKXMDxGVLM-X3WJk7MZ-49" style="edgeStyle=orthogonalEdgeStyle;rounded=0;orthogonalLoop=1;jettySize=auto;html=1;exitX=0.5;exitY=1;exitDx=0;exitDy=0;entryX=0.5;entryY=0;entryDx=0;entryDy=0;endArrow=none;endFill=0;fontFamily=Times New Roman;" parent="1" source="IjKXMDxGVLM-X3WJk7MZ-27" target="IjKXMDxGVLM-X3WJk7MZ-36" edge="1">
          <mxGeometry relative="1" as="geometry" />
        </mxCell>
        <mxCell id="IjKXMDxGVLM-X3WJk7MZ-27" value="i = 0, пока i &amp;lt; количества элементов, увеличивать i" style="shape=loopLimit;whiteSpace=wrap;html=1;fontFamily=Times New Roman;" parent="1" vertex="1">
          <mxGeometry x="280" y="200" width="120" height="80" as="geometry" />
        </mxCell>
        <mxCell id="IjKXMDxGVLM-X3WJk7MZ-52" style="edgeStyle=orthogonalEdgeStyle;rounded=0;orthogonalLoop=1;jettySize=auto;html=1;exitX=0.5;exitY=1;exitDx=0;exitDy=0;entryX=0.5;entryY=0;entryDx=0;entryDy=0;endArrow=none;endFill=0;fontFamily=Times New Roman;" parent="1" source="IjKXMDxGVLM-X3WJk7MZ-34" target="IjKXMDxGVLM-X3WJk7MZ-37" edge="1">
          <mxGeometry relative="1" as="geometry" />
        </mxCell>
        <mxCell id="IjKXMDxGVLM-X3WJk7MZ-34" value="i = 1, пока i &amp;lt; 10, увеличивать i" style="shape=loopLimit;whiteSpace=wrap;html=1;fontFamily=Times New Roman;" parent="1" vertex="1">
          <mxGeometry x="280" y="560" width="120" height="80" as="geometry" />
        </mxCell>
        <mxCell id="IjKXMDxGVLM-X3WJk7MZ-56" style="edgeStyle=orthogonalEdgeStyle;rounded=0;orthogonalLoop=1;jettySize=auto;html=1;exitX=0.5;exitY=1;exitDx=0;exitDy=0;entryX=0.5;entryY=0;entryDx=0;entryDy=0;endArrow=none;endFill=0;fontFamily=Times New Roman;" parent="1" source="IjKXMDxGVLM-X3WJk7MZ-35" target="IjKXMDxGVLM-X3WJk7MZ-38" edge="1">
          <mxGeometry relative="1" as="geometry" />
        </mxCell>
        <mxCell id="IjKXMDxGVLM-X3WJk7MZ-35" value="i = количество элементов, пока &lt;br&gt;i &amp;gt;= 0, уменьшвать i" style="shape=loopLimit;whiteSpace=wrap;html=1;fontFamily=Times New Roman;" parent="1" vertex="1">
          <mxGeometry x="520" y="80" width="120" height="80" as="geometry" />
        </mxCell>
        <mxCell id="IjKXMDxGVLM-X3WJk7MZ-50" style="edgeStyle=orthogonalEdgeStyle;rounded=0;orthogonalLoop=1;jettySize=auto;html=1;exitX=0.5;exitY=1;exitDx=0;exitDy=0;entryX=0.5;entryY=1;entryDx=0;entryDy=0;endArrow=none;endFill=0;fontFamily=Times New Roman;" parent="1" source="IjKXMDxGVLM-X3WJk7MZ-36" target="IjKXMDxGVLM-X3WJk7MZ-40" edge="1">
          <mxGeometry relative="1" as="geometry" />
        </mxCell>
        <mxCell id="IjKXMDxGVLM-X3WJk7MZ-36" value="count[(a[i] / exp) % 10] ++" style="rounded=0;whiteSpace=wrap;html=1;fontFamily=Times New Roman;" parent="1" vertex="1">
          <mxGeometry x="280" y="320" width="120" height="80" as="geometry" />
        </mxCell>
        <mxCell id="IjKXMDxGVLM-X3WJk7MZ-53" style="edgeStyle=orthogonalEdgeStyle;rounded=0;orthogonalLoop=1;jettySize=auto;html=1;exitX=0.5;exitY=1;exitDx=0;exitDy=0;entryX=0.5;entryY=1;entryDx=0;entryDy=0;endArrow=none;endFill=0;fontFamily=Times New Roman;" parent="1" source="IjKXMDxGVLM-X3WJk7MZ-37" target="IjKXMDxGVLM-X3WJk7MZ-41" edge="1">
          <mxGeometry relative="1" as="geometry" />
        </mxCell>
        <mxCell id="IjKXMDxGVLM-X3WJk7MZ-37" value="count[i] += count[i -1]" style="rounded=0;whiteSpace=wrap;html=1;fontFamily=Times New Roman;" parent="1" vertex="1">
          <mxGeometry x="280" y="680" width="120" height="80" as="geometry" />
        </mxCell>
        <mxCell id="IjKXMDxGVLM-X3WJk7MZ-57" style="edgeStyle=orthogonalEdgeStyle;rounded=0;orthogonalLoop=1;jettySize=auto;html=1;exitX=0.5;exitY=1;exitDx=0;exitDy=0;entryX=0.5;entryY=0;entryDx=0;entryDy=0;endArrow=none;endFill=0;fontFamily=Times New Roman;" parent="1" source="IjKXMDxGVLM-X3WJk7MZ-38" target="IjKXMDxGVLM-X3WJk7MZ-39" edge="1">
          <mxGeometry relative="1" as="geometry" />
        </mxCell>
        <mxCell id="IjKXMDxGVLM-X3WJk7MZ-38" value="result[count[(a[i] / exp) % 10] - 1]&lt;br&gt;= a[i]" style="rounded=0;whiteSpace=wrap;html=1;fontFamily=Times New Roman;" parent="1" vertex="1">
          <mxGeometry x="520" y="200" width="120" height="80" as="geometry" />
        </mxCell>
        <mxCell id="IjKXMDxGVLM-X3WJk7MZ-58" style="edgeStyle=orthogonalEdgeStyle;rounded=0;orthogonalLoop=1;jettySize=auto;html=1;exitX=0.5;exitY=1;exitDx=0;exitDy=0;entryX=0.5;entryY=1;entryDx=0;entryDy=0;endArrow=none;endFill=0;fontFamily=Times New Roman;" parent="1" source="IjKXMDxGVLM-X3WJk7MZ-39" target="IjKXMDxGVLM-X3WJk7MZ-42" edge="1">
          <mxGeometry relative="1" as="geometry" />
        </mxCell>
        <mxCell id="IjKXMDxGVLM-X3WJk7MZ-39" value="count[(a[i] / exp)&lt;br&gt;% 10]--" style="rounded=0;whiteSpace=wrap;html=1;fontFamily=Times New Roman;" parent="1" vertex="1">
          <mxGeometry x="520" y="320" width="120" height="80" as="geometry" />
        </mxCell>
        <mxCell id="IjKXMDxGVLM-X3WJk7MZ-51" style="edgeStyle=orthogonalEdgeStyle;rounded=0;orthogonalLoop=1;jettySize=auto;html=1;exitX=0.5;exitY=0;exitDx=0;exitDy=0;entryX=0.5;entryY=0;entryDx=0;entryDy=0;endArrow=none;endFill=0;fontFamily=Times New Roman;" parent="1" source="IjKXMDxGVLM-X3WJk7MZ-40" target="IjKXMDxGVLM-X3WJk7MZ-34" edge="1">
          <mxGeometry relative="1" as="geometry" />
        </mxCell>
        <mxCell id="IjKXMDxGVLM-X3WJk7MZ-40" value="i" style="shape=loopLimit;whiteSpace=wrap;html=1;direction=west;fontFamily=Times New Roman;" parent="1" vertex="1">
          <mxGeometry x="280" y="440" width="120" height="80" as="geometry" />
        </mxCell>
        <mxCell id="IjKXMDxGVLM-X3WJk7MZ-54" style="edgeStyle=orthogonalEdgeStyle;rounded=0;orthogonalLoop=1;jettySize=auto;html=1;exitX=0.5;exitY=0;exitDx=0;exitDy=0;entryX=0.5;entryY=0;entryDx=0;entryDy=0;endArrow=none;endFill=0;fontFamily=Times New Roman;" parent="1" source="IjKXMDxGVLM-X3WJk7MZ-41" target="IjKXMDxGVLM-X3WJk7MZ-46" edge="1">
          <mxGeometry relative="1" as="geometry" />
        </mxCell>
        <mxCell id="IjKXMDxGVLM-X3WJk7MZ-41" value="i" style="shape=loopLimit;whiteSpace=wrap;html=1;direction=west;fontFamily=Times New Roman;" parent="1" vertex="1">
          <mxGeometry x="280" y="800" width="120" height="80" as="geometry" />
        </mxCell>
        <mxCell id="IjKXMDxGVLM-X3WJk7MZ-59" style="edgeStyle=orthogonalEdgeStyle;rounded=0;orthogonalLoop=1;jettySize=auto;html=1;exitX=0.5;exitY=0;exitDx=0;exitDy=0;entryX=0.5;entryY=0;entryDx=0;entryDy=0;endArrow=none;endFill=0;fontFamily=Times New Roman;" parent="1" source="IjKXMDxGVLM-X3WJk7MZ-42" target="IjKXMDxGVLM-X3WJk7MZ-43" edge="1">
          <mxGeometry relative="1" as="geometry" />
        </mxCell>
        <mxCell id="IjKXMDxGVLM-X3WJk7MZ-42" value="i" style="shape=loopLimit;whiteSpace=wrap;html=1;direction=west;fontFamily=Times New Roman;" parent="1" vertex="1">
          <mxGeometry x="520" y="440" width="120" height="80" as="geometry" />
        </mxCell>
        <mxCell id="IjKXMDxGVLM-X3WJk7MZ-60" style="edgeStyle=orthogonalEdgeStyle;rounded=0;orthogonalLoop=1;jettySize=auto;html=1;exitX=0.5;exitY=1;exitDx=0;exitDy=0;entryX=0.5;entryY=0;entryDx=0;entryDy=0;endArrow=none;endFill=0;fontFamily=Times New Roman;" parent="1" source="IjKXMDxGVLM-X3WJk7MZ-43" target="IjKXMDxGVLM-X3WJk7MZ-44" edge="1">
          <mxGeometry relative="1" as="geometry" />
        </mxCell>
        <mxCell id="IjKXMDxGVLM-X3WJk7MZ-43" value="i = 0, пока i &amp;lt; количества элементов, увеличивать i" style="shape=loopLimit;whiteSpace=wrap;html=1;fontFamily=Times New Roman;" parent="1" vertex="1">
          <mxGeometry x="520" y="560" width="120" height="80" as="geometry" />
        </mxCell>
        <mxCell id="IjKXMDxGVLM-X3WJk7MZ-61" style="edgeStyle=orthogonalEdgeStyle;rounded=0;orthogonalLoop=1;jettySize=auto;html=1;exitX=0.5;exitY=1;exitDx=0;exitDy=0;entryX=0.5;entryY=1;entryDx=0;entryDy=0;endArrow=none;endFill=0;fontFamily=Times New Roman;" parent="1" source="IjKXMDxGVLM-X3WJk7MZ-44" target="IjKXMDxGVLM-X3WJk7MZ-45" edge="1">
          <mxGeometry relative="1" as="geometry" />
        </mxCell>
        <mxCell id="IjKXMDxGVLM-X3WJk7MZ-44" value="a[i] = result[i]" style="rounded=0;whiteSpace=wrap;html=1;fontFamily=Times New Roman;" parent="1" vertex="1">
          <mxGeometry x="520" y="680" width="120" height="80" as="geometry" />
        </mxCell>
        <mxCell id="IjKXMDxGVLM-X3WJk7MZ-45" value="i" style="shape=loopLimit;whiteSpace=wrap;html=1;direction=west;fontFamily=Times New Roman;" parent="1" vertex="1">
          <mxGeometry x="520" y="800" width="120" height="80" as="geometry" />
        </mxCell>
        <mxCell id="IjKXMDxGVLM-X3WJk7MZ-46" value="B" style="ellipse;whiteSpace=wrap;html=1;aspect=fixed;fontFamily=Times New Roman;" parent="1" vertex="1">
          <mxGeometry x="320" y="920" width="40" height="40" as="geometry" />
        </mxCell>
      </root>
    </mxGraphModel>
  </diagram>
</mxfile>
